PathFileType	4	(X/Y/Z)	 s09c0303.trc
DataRate	CameraRate	NumFrames	NumMarkers	Units	OrigDataRate	OrigDataStartFrame	OrigNumFrames
200	200	7	50	mm	200	751	2000
Frame#	Time	racr			lacr			c7			jug			rlel			rdr			llel			ldr			s2			lic			ric			lasi			rasi			rpsi			lpsi			rgt			lgt			rth1			rth2			rth3			rth4			rlfc			rmfc			rsh1			rsh2			rsh3			rsh4			rlmal			rmmal			rcal			rtoe			rmt5			lth1			lth2			lth4			lth3			llfc			lmfc			llmal			lmmal			lcal			lmt5			lsh1			lsh2			lsh3			lsh4			ltoe			SBIKE			LBIKE			RBIKE			
		X1	Y1	Z1	X2	Y2	Z2	X3	Y3	Z3	X4	Y4	Z4	X5	Y5	Z5	X6	Y6	Z6	X7	Y7	Z7	X8	Y8	Z8	X9	Y9	Z9	X10	Y10	Z10	X11	Y11	Z11	X12	Y12	Z12	X13	Y13	Z13	X14	Y14	Z14	X15	Y15	Z15	X16	Y16	Z16	X17	Y17	Z17	X18	Y18	Z18	X19	Y19	Z19	X20	Y20	Z20	X21	Y21	Z21	X22	Y22	Z22	X23	Y23	Z23	X24	Y24	Z24	X25	Y25	Z25	X26	Y26	Z26	X27	Y27	Z27	X28	Y28	Z28	X29	Y29	Z29	X30	Y30	Z30	X31	Y31	Z31	X32	Y32	Z32	X33	Y33	Z33	X34	Y34	Z34	X35	Y35	Z35	X36	Y36	Z36	X37	Y37	Z37	X38	Y38	Z38	X39	Y39	Z39	X40	Y40	Z40	X41	Y41	Z41	X42	Y42	Z42	X43	Y43	Z43	X44	Y44	Z44	X45	Y45	Z45	X46	Y46	Z46	X47	Y47	Z47	X48	Y48	Z48	X49	Y49	Z49	X50	Y50	Z50	
751	3.7550	788.730044	1320.734027	-107.359373	760.947931	1253.461073	-453.471105	770.640896	1347.261906	-276.487241	770.536150	1210.533260	-267.101920	659.001208	1102.576560	-8.937578	726.763602	869.684357	-56.570519	558.983297	1061.173772	-519.489177	716.130594	887.043876	-440.114042	290.196510	1187.783706	-199.535681	404.988704	1169.446282	-370.954762	448.693360	1128.263536	-80.874117	431.426901	1106.073870	-359.142085	469.142653	1068.368671	-112.398381	337.529127	1199.381293	-144.688438	320.311663	1223.209244	-249.174120	373.398257	994.381623	-45.025968	344.032917	1066.150660	-415.985771	383.464595	868.010856	-57.638492	409.130914	783.751408	-68.937144	382.312446	699.406190	-77.694279	437.113444	784.612018	-92.893986	374.932371	608.071274	-107.235482	341.913206	588.632445	-201.700737	324.569230	521.340106	-68.992984	326.309333	432.257803	-79.543809	283.632288	355.440112	-75.713340	348.155128	428.754064	-113.161752	251.137919	259.896621	-73.488339	252.833695	267.172052	-148.755994	173.931248	268.448528	-105.833507	384.492753	108.414310	-133.346437	311.670472	139.380901	-61.825172	446.728211	968.714188	-430.235475	524.143330	932.811346	-427.620213	548.258718	957.647075	-412.022699	576.026434	859.435514	-435.465763	622.648358	772.823225	-422.869022	632.794574	749.446818	-324.050316	295.504147	609.800273	-419.104381	311.128568	611.597583	-345.515557	212.295841	631.641763	-379.953184	310.146465	485.067885	-434.129856	534.496537	729.367096	-439.992035	467.325531	674.890507	-428.578387	379.793173	660.269286	-424.381567	481.302198	651.374236	-400.184275	394.853364	446.903530	-358.251065	-64.333597	851.479893	-238.067428	20.952591	85.295156	-442.101691	21.182217	84.150091	-43.626464	
752	3.7600	791.000504	1320.565293	-112.397542	757.089657	1253.213132	-458.912339	769.969924	1347.023314	-280.823406	770.058174	1211.510979	-272.085581	662.130355	1103.314865	-11.548771	726.833335	869.569983	-56.705325	554.865332	1059.029069	-518.973558	715.706067	887.718489	-440.087803	292.355369	1188.426104	-196.850027	403.097905	1172.001504	-369.403200	451.634132	1128.234762	-80.161315	430.042229	1108.495686	-357.949270	470.389018	1068.082790	-112.071152	339.458406	1200.622256	-141.506128	319.964048	1225.003850	-247.303112	373.839475	995.229405	-44.596779	342.809440	1069.272154	-414.020091	382.689730	869.057850	-57.512546	407.356437	784.697785	-67.438748	380.037230	700.610575	-75.610331	435.272116	785.113862	-91.687566	370.079983	609.028210	-105.423833	336.681366	590.152036	-200.246211	320.429172	522.549303	-67.245454	321.494653	433.455772	-78.335908	278.491864	356.983701	-74.216842	343.166000	430.006987	-112.011607	245.321650	261.341548	-72.115148	246.838567	268.802347	-147.427698	168.161958	271.607072	-104.582693	374.672710	107.061139	-133.694114	303.040660	139.301193	-61.799713	446.122612	972.571645	-428.253323	523.885297	937.483600	-426.011580	547.733973	962.578899	-410.574692	576.653449	864.629916	-434.094585	625.026157	778.952982	-421.901508	635.943394	755.204951	-323.071327	301.136079	608.955911	-418.108487	316.974757	611.252186	-344.635219	216.990729	628.680398	-378.819903	319.469858	485.244936	-434.258404	537.591500	733.545121	-438.880570	471.621013	677.458477	-427.589075	384.315882	661.286088	-423.385931	486.041857	654.460686	-399.449967	404.887525	449.280307	-358.905146	-64.345172	851.498201	-238.060349	20.926198	85.306784	-442.072694	21.201437	84.180357	-43.646045	
753	3.7650	793.146591	1320.194493	-117.368013	753.194742	1253.231093	-464.070851	769.246891	1346.790650	-285.015602	769.448543	1212.247830	-277.222599	664.851441	1104.012756	-14.170616	727.236918	869.385026	-56.792286	551.005595	1056.813659	-518.383442	715.305312	888.263810	-440.191691	293.659497	1189.858842	-194.029588	401.358383	1174.634946	-367.955854	454.358866	1128.395118	-79.770341	429.001791	1111.019507	-357.239510	471.592727	1068.265632	-111.973695	341.243191	1201.950775	-138.594272	320.266961	1226.864615	-243.916758	374.439934	996.634684	-43.175268	341.820418	1072.465315	-412.129463	382.361096	870.386901	-56.166391	406.308062	785.487883	-66.351486	377.680495	701.977943	-73.459065	433.840876	785.936138	-90.494319	366.357100	610.283553	-103.365890	332.490327	592.040442	-199.041406	317.086398	523.818748	-65.797790	316.917522	434.728028	-77.856310	273.310121	358.686045	-72.876367	338.320741	431.159012	-111.066729	238.803621	263.242354	-70.791973	240.115572	270.904118	-146.163367	161.722109	274.732452	-103.146846	364.786347	106.454143	-133.843428	294.423986	139.877983	-61.675644	445.461929	976.283688	-426.408933	523.613111	941.927256	-424.412168	547.280024	967.271568	-409.052630	577.041006	869.614674	-432.770134	626.824605	784.816240	-420.928905	638.563893	760.572696	-321.975946	306.622364	607.549714	-416.805857	321.795579	610.206067	-343.240253	221.528870	624.980296	-377.214991	328.677264	485.082769	-434.128222	540.391177	737.253245	-437.711396	475.625133	679.634312	-426.453362	388.708373	661.662684	-422.122064	490.576055	656.941512	-398.393906	414.774101	451.236851	-359.865479	-64.359838	851.515140	-238.078684	20.919317	85.346482	-442.072751	21.183749	84.206900	-43.652895	
754	3.7700	795.261421	1319.448082	-122.317650	748.983209	1253.427980	-469.450154	768.449602	1346.474750	-289.080690	768.635591	1212.838146	-282.329369	668.243467	1104.624254	-16.569797	727.681125	869.294130	-56.740629	547.354223	1054.638889	-517.767962	715.024045	888.631836	-440.106198	294.365629	1191.841494	-190.952189	399.768837	1177.310925	-366.614046	456.752230	1128.998898	-79.509692	427.856317	1113.544520	-356.281990	471.890500	1068.986684	-113.556466	342.957239	1203.440750	-135.896510	320.374120	1229.661967	-240.954773	375.108767	997.995938	-41.935698	341.004040	1075.690878	-410.354945	382.382407	871.756314	-54.803901	405.480324	786.764462	-64.396413	375.908787	703.324491	-71.658659	433.001308	786.571815	-89.181282	363.743300	611.440038	-101.482446	329.513982	593.992678	-197.882672	314.413798	525.065515	-64.671382	312.759220	436.022477	-76.834595	267.972517	360.574181	-71.625393	333.677247	432.292918	-110.413751	231.814931	265.616707	-69.491148	233.016685	273.187885	-145.020002	154.760763	278.027723	-102.234163	355.003641	106.874222	-133.941468	285.394247	141.102762	-61.514026	444.760394	979.943711	-424.590025	523.190865	946.247020	-422.949066	546.480318	971.730598	-407.726841	577.244315	874.387415	-431.343267	628.546912	789.972169	-419.481881	640.755712	765.931577	-320.854317	311.797772	605.547110	-415.146949	326.918542	608.510052	-341.735624	225.946279	620.452632	-375.109898	337.825673	484.474749	-434.012450	542.497356	740.506305	-437.090984	479.299194	681.281631	-425.059161	392.872268	661.271704	-420.655573	494.798682	658.804840	-397.102626	424.749392	452.766516	-360.819116	-64.356500	851.541768	-238.026204	20.897134	85.433270	-442.060357	21.168501	84.210337	-43.665157	
755	3.7750	797.232831	1318.621336	-126.976972	744.669776	1253.553356	-474.608370	767.555719	1346.089992	-292.805824	767.684929	1213.212151	-287.430947	669.951887	1105.673341	-18.472116	728.028758	869.290571	-56.608463	544.212950	1052.502654	-517.230546	714.771493	888.961691	-439.914096	295.169215	1194.237061	-187.503473	398.321282	1179.987529	-365.378653	458.900898	1129.902412	-79.236184	426.831383	1116.008288	-355.803699	473.184443	1070.039696	-113.509927	344.561728	1205.133708	-133.377179	320.929976	1231.822404	-237.843688	375.676195	999.509460	-40.807024	340.527461	1079.311508	-409.304220	382.666202	873.106943	-53.556088	405.135636	787.766625	-64.126760	375.227692	704.629982	-70.298793	432.617716	787.470806	-88.336272	362.163731	612.336605	-100.055947	327.618607	595.881694	-196.973397	312.257304	526.273126	-63.880539	308.694904	437.415914	-76.092305	262.409670	362.892802	-70.517820	329.118363	433.301184	-109.918470	224.264285	268.181135	-68.302337	225.291748	275.994972	-143.952981	147.296950	281.720714	-101.295890	345.238054	107.991976	-133.928942	276.191528	143.081659	-61.215341	443.994884	983.528802	-423.008785	522.036755	950.194863	-422.236146	544.581303	975.683390	-406.701781	576.903592	878.871326	-430.337009	629.523914	794.647639	-418.384248	642.556107	770.942036	-319.687012	316.676944	602.952726	-413.238340	331.885953	605.994758	-339.869087	230.186600	615.088881	-372.619074	346.718344	483.564273	-433.729428	544.447978	742.874792	-435.869042	482.631062	682.229284	-423.595652	396.363638	660.702065	-419.209104	498.688088	660.155539	-395.643257	434.592541	453.875144	-361.820454	-64.324101	851.582741	-237.946036	20.898345	85.482984	-442.055447	21.124172	84.186821	-43.663177	
756	3.7800	799.144068	1317.656623	-131.635516	741.671317	1253.709286	-478.110791	767.590108	1345.524493	-296.674042	766.634709	1213.384161	-292.331970	671.949023	1106.207535	-20.668938	728.284946	869.035629	-56.777660	540.718122	1050.774593	-515.858503	714.464176	889.326080	-439.754853	295.751513	1196.823581	-184.520687	397.002062	1182.618703	-364.251925	460.843438	1130.998346	-78.873191	426.129988	1118.546922	-355.285191	474.309103	1071.320260	-113.422839	345.980094	1207.023267	-131.034271	321.548906	1233.941494	-235.158742	376.376135	1001.018048	-39.629587	339.897837	1082.517428	-407.642964	383.564230	874.243613	-52.918759	405.544379	789.037117	-63.298103	375.838025	705.795882	-69.333994	432.891089	788.548947	-87.774005	361.140837	613.082506	-99.353861	326.497347	597.573247	-196.080199	310.522384	527.545074	-63.094727	304.726179	438.876217	-75.553402	256.824057	365.438509	-69.659193	324.959832	434.242423	-109.728788	216.381180	271.232911	-67.274854	217.254252	279.227185	-142.996969	139.589978	285.493513	-100.342408	335.647220	110.008849	-134.004028	266.906902	145.638846	-61.060064	443.109054	986.992391	-421.377256	520.573339	954.106478	-421.568786	542.929401	979.471028	-405.726567	576.432753	882.665561	-429.507148	629.272546	799.526908	-417.403778	644.062269	775.212150	-318.713339	321.308439	599.647300	-411.232604	336.486552	602.800690	-337.947343	234.155283	608.943223	-370.106325	355.326429	482.149773	-433.451947	545.886752	744.468466	-434.615710	485.521448	682.429658	-421.985190	399.756457	658.975976	-417.482750	502.183956	660.845855	-393.980377	444.033949	454.601250	-362.744812	-64.296357	851.614216	-237.828974	20.891293	85.560394	-442.038028	21.118867	84.214086	-43.662229	
757	3.7850	800.932667	1316.588265	-136.206959	737.197959	1254.172377	-482.676183	766.570797	1345.131152	-300.189731	765.447861	1213.349595	-297.085954	673.828328	1106.894614	-22.619806	728.574703	869.096288	-56.796742	538.003422	1048.937414	-515.328103	714.009686	889.843791	-439.909518	296.071538	1200.030399	-182.432451	395.793543	1185.156967	-363.238869	462.738859	1132.217848	-78.352439	425.218274	1120.947923	-354.197616	475.119643	1072.570675	-113.323284	348.388358	1208.397708	-130.080203	320.731033	1236.722616	-234.009348	377.151296	1002.657034	-38.458961	339.357910	1085.664312	-406.078152	384.713921	875.325675	-52.248245	406.574318	790.188917	-62.787621	376.783146	707.125819	-68.685253	433.739873	789.666906	-87.450245	361.321727	613.654014	-98.903801	325.923765	599.223562	-195.402020	309.061476	529.069727	-62.416019	301.010671	440.540257	-75.038216	251.245229	368.365255	-68.925182	320.625670	435.634228	-109.291863	208.549695	274.767854	-66.273533	209.602749	282.876549	-142.169818	131.800091	289.674348	-99.414521	326.301406	112.845017	-133.998027	258.014083	148.677808	-60.785304	442.045807	990.235279	-419.892130	521.679683	957.110113	-418.455456	544.475453	981.372963	-404.799336	576.051563	886.584141	-427.306914	628.526946	803.494277	-416.574694	644.937081	778.923382	-317.688578	325.594842	595.596755	-409.265190	340.904197	598.879829	-336.002909	237.994995	601.962689	-367.637888	363.579447	480.242484	-433.095213	546.886620	745.393645	-433.375862	487.917754	681.972243	-420.388290	402.920243	656.564900	-415.598232	505.175880	660.920171	-392.421490	453.223235	454.944152	-364.042095	-64.261599	851.656692	-237.639413	20.904485	85.746350	-441.960863	21.111733	84.223795	-43.620077	
